<svg id="Layer_1" data-name="Layer 1" xmlns="http://www.w3.org/2000/svg" viewBox="0 0 1561.87 129.48"><defs><style>.cls-1{fill:none;stroke:#ffffff;stroke-miterlimit:10;}</style></defs><title>name</title><path class="cls-1" d="M1265.6,579c-5.06-1.56,29.29-1.88,24.48-4.12-15.69-7.29-37.53.23-45.27,15.57a53.73,53.73,0,0,1-6.53,9.91c-4.12,5-7.66,10-7.25,16.92a7.41,7.41,0,0,1-.69,2.9c-1.39,3.61-3.25,6.64-7.9,6.09-4.34-.51-6.5-3.09-6.82-7.27-.62-8.27-1.09-16.55-1.71-24.81-.17-2.22-.67-4.4-1.36-8.8-4.57,3.14-7.69,5-10.44,7.22-7.43,6.11-14.87,12.22-22,18.67-7.86,7.12-17.29,11-27.07,14.39-1.26.44-2.78.43-3.8,1.16-9.25,6.54-19.84,4.6-29.87,4a29.52,29.52,0,0,1-15.29-6c-7-5.34-7.41-11-4.26-19.55,4.21-11.39,13-19.21,21.26-27.23,4.74-4.56,10.69-7.86,16.16-11.63a34.39,34.39,0,0,1,22.7-6.09c10.15.76,14.29,7.08,10.46,16.43-6.19,15.11-17.44,25.63-31.63,33.11-5.21,2.74-10.82,4.73-16.74,7.28M1276,583a10.33,10.33,0,0,1,3,2c15.82-6,30.57-12.07,45.61-17.26,6.85-2.37,14.24-3.27,21.44-4.53a13,13,0,0,1,6.84.6,6.63,6.63,0,0,1,3.27,4.28c.25,1.12-1.06,3.41-2.21,3.87a125,125,0,0,1-13.16,4.19c-9.58,2.64-19.2,5.11-28.76,7.79-1.16.32-2.08,1.5-4.33,3.19,4.43,2.39,8,4.48,11.71,6.29,10.17,4.94,20.42,9.73,30.59,14.68a28.17,28.17,0,0,1,5.86,3.77c11.31,9.51,9.9,18.83-2.61,26.81-17.4,11.1-35.8,11-54.85,7m-73.17-62.45" transform="translate(197.8 -525.72)"/><path class="cls-1" d="M740.16,588.3c7-11.58,17.13-19.36,29.39-24.37a32.56,32.56,0,0,1,12.59-2.12c5.21.08,7.14,3.26,5.48,8.1-2.71,39.56-67.18,41.63-68.82,43.65M855.32,570.1c-1.63.27-7.28,24.61-17.17,34.07-14,13.41-34.53,13.57-46.52,16.49-28.21,6.86-30.18,8.43-45.53,1.41-2.9-1.32-6.15-3.08-7.82-5.58-.44-.38-7-6.27-5.71-15M855.32,570.1c4-5.65,5.19-12.94,7.62-19.47,1.26-3.38,2.73-5.94,6.92-5.82,4.69.13-2.45.25-3.79,4.87-2.29,7.94-5.39,15.65-8.28,23.41-1.37,3.69-3,7.27-4.81,11.52,5.89,1.54,18.07-.62,21.33-2.76,8.32-5.45,16.12-11.74,24.73-16.62,10.49-5.94,21.76-9.79,34.31-8.17,15.41,2,23.56,15,17.53,29.54a47,47,0,0,1-9.75,14.85c-16.08,16.16-35.1,26-58.61,25.56-9-.18-15-4.5-18.91-12.29" transform="translate(197.8 -525.72)"/><path class="cls-1" d="M-197.33,655c2.82-7.72,7.84-12.43,15.44-15.62,1.69-.71,2.89-2.55,4.31-3.88,7.28-6.77,14.44-13.67,21.84-20.3,16.79-15.05,33.52-30.16,50.62-44.85,10.54-9.06,21.59-17.55,32.64-26,6-4.61,12.43-8.8,18.9-12.81,8.1-5,14.22-6.06,24.73-4.77,5.8,10.49,3.59,21.73-.28,32.14-3.67,9.88-9.64,18.91-14.59,28.31q-5,9.43-9.9,18.86l1.49,1.68c3.58-1.33,7.46-2.16,10.66-4.1,11.66-7,23-14.53,34.61-21.65,15-9.18,29.94-18.29,45.06-27.18,8.56-5,17.12-10.24,26.2-14.17a232.75,232.75,0,0,1,33.67-11.94c11.46-3,18.36,2.72,18,14.61a56.4,56.4,0,0,1-4.8,21.12C104.37,579.56,98,595,87.77,608.34c-3,3.88-4.71,8.71-7.09,13.26,5.59,5.1,10.86-3,16.61.43" transform="translate(197.8 -525.72)"/><path d="M-75.31,617.45" transform="translate(197.8 -525.72)"/><path class="cls-1" d="M248.63,611.49c3.49-1,3.13-4.43,3.19-7.57.22-12.71,6.2-22.29,18.54-22.86,4.4-.2,5.07-2.23,4.83,3.3-16.95,4.4-21.27,7.37-19.35,17.43,12.87-4.49,26.73-5.47,37.46-15.78,6.88-6.61,15.32-11.64,23.3-17,5.74-3.88,6.15-3.66,15-1.54.65,4.79-9.95,3.11-13.44,5.48-13.18,8.94-26.44,17.82-38.89,27.7-4.62,3.66-15.57,7.61-19.1,12.87,15.79,17.48,55.44,31.2,79.31,21.91,3.52,6.92,3.17,4.49-3.76,7-9.31,3.34-19,2.81-28.59,1.56-14.65-1.91-35.29-11.49-47-23.16-4.85-2.09-5.81,4.4-9.28,8.31-5.13,5.77-4.05,6.87-10.9,13.48-3.12,1.05-5.86,7.35-8.18,4.59-2.62-3.14,2.74-5.21,4.61-7.42,4.07-4.83,8.66-9.22,12.59-14.15,1.41-1.76,2.68-5,2-6.77-1.17-3.23-4.18-1.57-6.84-1-9.72,2.11-19.45,4.77-29.3,5.46-11.65.81-23.68.38-30-13.15-4.15,2.74-7.63,5.27-11.32,7.43-12,7.07-24,14.56-38.83,13.66-1.32-.09-2.66-.13-4-.35-8.13-1.38-10.6-5.89-7.57-13.6,3.68-9.4,10.87-16.2,18.59-21.76,11-7.93,22.6-15.32,36.3-18.17,2.6-.54,5.33-1.69,7.81-1.31s6.42,1.77,7.07,3.64c.74,2.13-.7,6-2.49,7.82-2.68,2.75-6.49,4.4-10.48,6.94" transform="translate(197.8 -525.72)"/><path class="cls-1" d="M1004.46,578.59c7.15-5,12.22-8.59,17.27-12.19,9.07-6.46,19.47-8.44,30.27-8.52,16.51-.11,29.43,17.36,27.25,31.71-.79,5.2-2,10.65-4.42,15.23-5.45,10.22-12.12,19.43-22.53,25.71-16.79,10.14-39.56,2.31-45.71-16.31-.9-2.73-1.93-5.4-3.64-10.12-3,4.55-4.81,7.54-6.82,10.42a75.73,75.73,0,0,1-6.51,8.72c-4.57,4.87-5.37,4.76-13,.14.51-2.37.65-5.09,1.68-7.41,8.83-19.85,12.6-41.17,18.15-62,1.68-6.31,1.61-13.17,1.7-19.79" transform="translate(197.8 -525.72)"/><path class="cls-1" d="M586.84,633.29a34.68,34.68,0,0,1-7.49,2.74c-15.51,3.67-31,7.42-46.6,10.72a103.49,103.49,0,0,1-45.53-.26c-10.27-2.42-13.31-6.44-10.21-16.6,4.55-14.9,9.32-30,16.5-43.75,9.68-18.49,21.71-35.75,32.8-53.48,3-4.79,6.82-8.18,14.45-5.49" transform="translate(197.8 -525.72)"/><path class="cls-1" d="M709.06,582.83c-16,15.94-30.88,31.93-47,46.6-10.65,9.7-24.42,9.54-37.7,6-6.19-1.66-8.63-7.33-8.15-13.45a67.72,67.72,0,0,1,17-40.61c3.51-4,9.95-5.41,12.43-3.2" transform="translate(197.8 -525.72)"/></svg>