<svg xmlns="http://www.w3.org/2000/svg" viewBox="0 0 1003.29 93.26"><defs><style>.cls-1{fill:none;stroke:#231f20;stroke-miterlimit:10;}</style></defs><title>waveform</title><g id="Layer_2" data-name="Layer 2"><g id="Layer_1-2" data-name="Layer 1"><path class="cls-1" d="M1003.23.53c-10.93,1.3-17.31,8-23.68,14.82C967.49,28.25,955.24,41,939.72,49.88c-2,1.15-4.09,2.15-6.08,3.32-3,1.77-5.38,1.23-8.14-.93-6.24-4.91-12.89-9.28-19.16-14.15-2-1.56-3.36-4-5-6.06-4.29-5.43-8.57-10.87-13.08-16.6-12.09,6.3-23.76,11.82-34.85,18.32C842.84,40,832.86,47.21,822.62,54c-5.67,3.76-8.47,3.36-13.77-1.94C793.36,36.59,777.19,21.71,766,.77c-3.11,2.49-5.66,3.89-7.35,6-11,13.74-21.87,27.62-32.76,41.46-.41.52-1,1.08-1.07,1.67-.85,7.68-6.92,9.6-13.46,12-9.63-10.62-21.55-18.81-33.5-27.1-5.87-4.07-10.11-10.5-15-15.94-2.42-2.7-4.62-5.58-7.69-9.33-6.71,6-13.15,11.59-19.28,17.46-11.53,11-24,21.25-31.7,35.65a26.66,26.66,0,0,1-4.24,5.53c-4.26,4.5-8.18,4.57-12.61-.17-9.09-9.72-17.84-19.75-27-29.43C549.67,27.16,538.73,16,527.82,4.75c-8.18,2.7-13.18,8.68-18.23,14.14C496.51,33,483.92,47.66,471.14,62.09a36.16,36.16,0,0,1-4,4.42c-5.54,4.39-9.1,3.95-14.72-.68a238.7,238.7,0,0,0-19.76-15.18c-14.08-9.3-25.17-21.43-35.2-34.79-2.74-3.65-6.52-6.52-10.46-10.37L373.28,17.63a238.4,238.4,0,0,0-44.38,52.2c-4.94,7.92-7.25,7.7-14.95,2.49A183.68,183.68,0,0,0,287.1,57.4c-18.4-8.33-32-22.19-45.08-36.9-3.28-3.7-6.24-7.69-10.11-12.51-3.89,3.93-6.3,6-8.3,8.45C209,34.12,195,52.29,183.31,72.09c-6.78,11.48-11.42,10.83-22,3.66C147.05,66.16,134.06,54.67,121,43.41c-6.46-5.59-11.78-12.49-18.42-19.67-2.89,3-5.49,5.05-7.21,7.65C86.09,45.53,75.58,59,69.82,75.22a30.33,30.33,0,0,1-6.53,11.11c-2.79,2.79-7.06,4.1-10.69,6.07,0-1,.11-1.93.16-2.9-3-2.14-5.67-4.85-8.93-6.34C31.1,77.39,26.48,65.41,21.17,54.06c-2.19-4.68-2.3-10.37-4.66-14.93C13.19,32.72,8.7,26.91,4.63,20.9,3.52,19.26,1.61,18,1,16.23S.26,12,1.2,10.77"/></g></g></svg>